<?xml version="1.0" encoding="utf-8"?>
<!-- Generator: Adobe Illustrator 19.0.0, SVG Export Plug-In . SVG Version: 6.00 Build 0)  -->
<svg version="1.1" id="Layer_1" xmlns="http://www.w3.org/2000/svg" xmlns:xlink="http://www.w3.org/1999/xlink" x="0px" y="0px"
	 viewBox="0 0 500 500" style="enable-background:new 0 0 500 500;" xml:space="preserve">
<style type="text/css">
	.st0{fill:#FFFFFF;}
	.st1{fill:none;stroke:#FFFFFF;stroke-width:21.0339;stroke-miterlimit:10;}
</style>
<g id="XMLID_507_">
	<g id="XMLID_509_">
		<path id="XMLID_523_" class="st0" d="M366.5,384.6c-79.9,0-159.9,0-239.8,0c0-89.7,0-179.5,0-269.2c79.9,0,159.9,0,239.8,0
			c2.3,6.2,6.5,12.4,6.5,18.7c0.5,77.3,0.5,154.6,0,231.9C373,372.2,368.7,378.4,366.5,384.6z M350.3,361.4c0-74.6,0-148.6,0-222.7
			c-67.2,0-133.6,0-200.3,0c0,74.6,0,148.6,0,222.7C217.2,361.4,283.6,361.4,350.3,361.4z"/>
		<path id="XMLID_522_" class="st0" d="M202.4,301.6c13.8-12.8,26-23.7,37.8-35.1c5.9-5.7,12.1-9.6,18.8-2.6
			c6.3,6.5,2.7,12.6-2.9,18.1c-13.5,13.2-26.7,26.7-40.1,40c-8.7,8.6-12.9,8.6-22.1,0c-6.4-6-12.6-12.1-18.9-18.1
			c-5.3-5.1-6.6-10.9-1.3-16.5c5.4-5.7,11.3-4.7,16.5,0.6C194.9,292.7,199.1,297.9,202.4,301.6z"/>
		<path id="XMLID_519_" class="st0" d="M216.1,239.6c0,11.2,0,21.2,0,32.1c-10.7,0-21,0-32.3,0c0-10.4,0-20.9,0-32.1
			C194.4,239.6,204.7,239.6,216.1,239.6z M194.5,260.2c10.1,2.4,12.1-1.5,9.5-9.7c-3.2,0-6.1,0-9.5,0
			C194.5,253.9,194.5,256.8,194.5,260.2z"/>
		<path id="XMLID_516_" class="st0" d="M183.7,183.3c10.6,0,21,0,32.1,0c0,10.7,0,21.3,0,32.5c-10.7,0-21,0-32.1,0
			C183.7,205,183.7,194.4,183.7,183.3z M204.4,204.8c0-4,0-7,0-10.5c-3.5,0-6.5,0-9.7,0c0,3.8,0,7,0,10.5
			C198.1,204.8,200.8,204.8,204.4,204.8z"/>
		<path id="XMLID_515_" class="st0" d="M317,183.3c0,3.2,0,5.9,0,9.5c-29.4,0-58.8,0-88.8,0c0-3,0-5.9,0-9.5
			C257.4,183.3,286.6,183.3,317,183.3z"/>
		<path id="XMLID_514_" class="st0" d="M317,206c0,3.3,0,6,0,9.5c-29.3,0-58.7,0-88.7,0c0-2.9,0-5.9,0-9.5
			C257.5,206,286.6,206,317,206z"/>
		<path id="XMLID_513_" class="st0" d="M227.9,249.4c0-3.5,0-6.2,0-9.7c29.6,0,59,0,89,0c0,3.3,0,6.2,0,9.7
			C287.3,249.4,258.2,249.4,227.9,249.4z"/>
		<path id="XMLID_512_" class="st0" d="M229.7,328.3c4.8-8.9,10.5-11.4,18.8-11.2c22.6,0.5,45.2,0.2,68.4,0.2c0.3,5.5,3.1,11-5.4,11
			C284.7,328.3,257.9,328.3,229.7,328.3z"/>
		<path id="XMLID_511_" class="st0" d="M251.7,306.2c5.3-9.2,11.3-12.2,20-11.7c13.2,0.7,26.5,0,39.8,0.4c2,0.1,4,3.3,5.9,5
			c-2,2.1-4,5.9-6,6C292,306.4,272.6,306.2,251.7,306.2z"/>
		<path id="XMLID_510_" class="st0" d="M316.5,272.2c-14.6,0-28.5,0-42.8,0c-2.5-7.2-2.2-11.6,7.1-11.2c9.4,0.4,18.9,0,28.4,0.1
			C317.6,261.2,317.6,261.3,316.5,272.2z"/>
	</g>
	<circle id="XMLID_508_" class="st1" cx="250" cy="250" r="228.2"/>
</g>
<g id="XMLID_1_">
	<g id="XMLID_3_">
		<path id="XMLID_17_" class="st0" d="M366.5,384.6c-79.9,0-159.9,0-239.8,0c0-89.7,0-179.5,0-269.2c79.9,0,159.9,0,239.8,0
			c2.3,6.2,6.5,12.4,6.5,18.7c0.5,77.3,0.5,154.6,0,231.9C373,372.2,368.7,378.4,366.5,384.6z M350.3,361.4c0-74.6,0-148.6,0-222.7
			c-67.2,0-133.6,0-200.3,0c0,74.6,0,148.6,0,222.7C217.2,361.4,283.6,361.4,350.3,361.4z"/>
		<path id="XMLID_16_" class="st0" d="M202.4,301.6c13.8-12.8,26-23.7,37.8-35.1c5.9-5.7,12.1-9.6,18.8-2.6
			c6.3,6.5,2.7,12.6-2.9,18.1c-13.5,13.2-26.7,26.7-40.1,40c-8.7,8.6-12.9,8.6-22.1,0c-6.4-6-12.6-12.1-18.9-18.1
			c-5.3-5.1-6.6-10.9-1.3-16.5c5.4-5.7,11.3-4.7,16.5,0.6C194.9,292.7,199.1,297.9,202.4,301.6z"/>
		<path id="XMLID_13_" class="st0" d="M216.1,239.6c0,11.2,0,21.2,0,32.1c-10.7,0-21,0-32.3,0c0-10.4,0-20.9,0-32.1
			C194.4,239.6,204.7,239.6,216.1,239.6z M194.5,260.2c10.1,2.4,12.1-1.5,9.5-9.7c-3.2,0-6.1,0-9.5,0
			C194.5,253.9,194.5,256.8,194.5,260.2z"/>
		<path id="XMLID_10_" class="st0" d="M183.7,183.3c10.6,0,21,0,32.1,0c0,10.7,0,21.3,0,32.5c-10.7,0-21,0-32.1,0
			C183.7,205,183.7,194.4,183.7,183.3z M204.4,204.8c0-4,0-7,0-10.5c-3.5,0-6.5,0-9.7,0c0,3.8,0,7,0,10.5
			C198.1,204.8,200.8,204.8,204.4,204.8z"/>
		<path id="XMLID_9_" class="st0" d="M317,183.3c0,3.2,0,5.9,0,9.5c-29.4,0-58.8,0-88.8,0c0-3,0-5.9,0-9.5
			C257.4,183.3,286.6,183.3,317,183.3z"/>
		<path id="XMLID_8_" class="st0" d="M317,206c0,3.3,0,6,0,9.5c-29.3,0-58.7,0-88.7,0c0-2.9,0-5.9,0-9.5
			C257.5,206,286.6,206,317,206z"/>
		<path id="XMLID_7_" class="st0" d="M227.9,249.4c0-3.5,0-6.2,0-9.7c29.6,0,59,0,89,0c0,3.3,0,6.2,0,9.7
			C287.3,249.4,258.2,249.4,227.9,249.4z"/>
		<path id="XMLID_6_" class="st0" d="M229.7,328.3c4.8-8.9,10.5-11.4,18.8-11.2c22.6,0.5,45.2,0.2,68.4,0.2c0.3,5.5,3.1,11-5.4,11
			C284.7,328.3,257.9,328.3,229.7,328.3z"/>
		<path id="XMLID_5_" class="st0" d="M251.7,306.2c5.3-9.2,11.3-12.2,20-11.7c13.2,0.7,26.5,0,39.8,0.4c2,0.1,4,3.3,5.9,5
			c-2,2.1-4,5.9-6,6C292,306.4,272.6,306.2,251.7,306.2z"/>
		<path id="XMLID_4_" class="st0" d="M316.5,272.2c-14.6,0-28.5,0-42.8,0c-2.5-7.2-2.2-11.6,7.1-11.2c9.4,0.4,18.9,0,28.4,0.1
			C317.6,261.2,317.6,261.3,316.5,272.2z"/>
	</g>
	<circle id="XMLID_2_" class="st1" cx="250" cy="250" r="228.2"/>
</g>
</svg>
