<?xml version="1.0" encoding="utf-8"?>
<!-- Generator: Adobe Illustrator 19.0.0, SVG Export Plug-In . SVG Version: 6.00 Build 0)  -->
<svg version="1.1" id="Layer_1" xmlns="http://www.w3.org/2000/svg" xmlns:xlink="http://www.w3.org/1999/xlink" x="0px" y="0px"
	 viewBox="0 0 500 500" style="enable-background:new 0 0 500 500;" xml:space="preserve">
<style type="text/css">
	.st0{fill:#FFFFFF;}
	.st1{fill:none;stroke:#FFFFFF;stroke-width:21.0339;stroke-miterlimit:10;}
</style>
<g id="XMLID_507_">
	<g id="XMLID_509_">
		<path id="XMLID_523_" class="st0" d="M366.5,384.6c-79.9,0-159.9,0-239.8,0c0-89.7,0-179.5,0-269.2c79.9,0,159.9,0,239.8,0
			c2.3,6.2,6.5,12.4,6.5,18.7c0.5,77.3,0.5,154.6,0,231.9C373,372.2,368.7,378.4,366.5,384.6z M350.3,361.4c0-74.6,0-148.6,0-222.7
			c-67.2,0-133.6,0-200.3,0c0,74.6,0,148.6,0,222.7C217.2,361.4,283.6,361.4,350.3,361.4z"/>
		<path id="XMLID_522_" class="st0" d="M202.4,301.6c13.8-12.8,26-23.7,37.8-35.1c5.9-5.7,12.1-9.6,18.8-2.6
			c6.3,6.5,2.7,12.6-2.9,18.1c-13.5,13.2-26.7,26.7-40.1,40c-8.7,8.6-12.9,8.6-22.1,0c-6.4-6-12.6-12.1-18.9-18.1
			c-5.3-5.1-6.6-10.9-1.3-16.5c5.4-5.7,11.3-4.7,16.5,0.6C194.9,292.7,199.1,297.9,202.4,301.6z"/>
		<path id="XMLID_519_" class="st0" d="M216.1,239.6c0,11.2,0,21.2,0,32.1c-10.7,0-21,0-32.3,0c0-10.4,0-20.9,0-32.1
			C194.4,239.6,204.7,239.6,216.1,239.6z M194.5,260.2c10.1,2.4,12.1-1.5,9.5-9.7c-3.2,0-6.1,0-9.5,0
			C194.5,253.9,194.5,256.8,194.5,260.2z"/>
		<path id="XMLID_516_" class="st0" d="M183.7,183.3c10.6,0,21,0,32.1,0c0,10.7,0,21.3,0,32.5c-10.7,0-21,0-32.1,0
			C183.7,205,183.7,194.4,183.7,183.3z M204.4,204.8c0-4,0-7,0-10.5c-3.5,0-6.5,0-9.7,0c0,3.8,0,7,0,10.5
			C198.1,204.8,200.8,204.8,204.4,204.8z"/>
		<path id="XMLID_515_" class="st0" d="M317,183.3c0,3.2,0,5.9,0,9.5c-29.4,0-58.8,0-88.8,0c0-3,0-5.9,0-9.5
			C257.4,183.3,286.6,183.3,317,183.3z"/>
		<path id="XMLID_514_" class="st0" d="M317,206c0,3.3,0,6,0,9.5c-29.3,0-58.7,0-88.7,0c0-2.9,0-5.9,0-9.5
			C257.5,206,286.6,206,317,206z"/>
		<path id="XMLID_513_" class="st0" d="M227.9,249.4c0-3.5,0-6.2,0-9.7c29.6,0,59,0,89,0c0,3.3,0,6.2,0,9.7
			C287.3,249.4,258.2,249.4,227.9,249.4z"/>
		<path id="XMLID_512_" class="st0" d="M229.7,328.3c4.8-8.9,10.5-11.4,18.8-11.2c22.6,0.5,45.2,0.2,68.4,0.2c0.3,5.5,3.1,11-5.4,11
			C284.7,328.3,257.9,328.3,229.7,328.3z"/>
		<path id="XMLID_511_" class="st0" d="M251.7,306.2c5.3-9.2,11.3-12.2,20-11.7c13.2,0.7,26.5,0,39.8,0.4c2,0.1,4,3.3,5.9,5
			c-2,2.1-4,5.9-6,6C292,306.4,272.6,306.2,251.7,306.2z"/>
		<path id="XMLID_510_" class="st0" d="M316.5,272.2c-14.6,0-28.5,0-42.8,0c-2.5-7.2-2.2-11.6,7.1-11.2c9.4,0.4,18.9,0,28.4,0.1
			C317.6,261.2,317.6,261.3,316.5,272.2z"/>
	</g>
	<circle id="XMLID_508_" class="st1" cx="250" cy="250" r="228.2"/>
</g>
<g id="XMLID_1_">
	<circle id="XMLID_553_" class="st1" cx="250" cy="250" r="228.2"/>
	<g id="XMLID_2_">
		<path id="XMLID_550_" class="st0" d="M130.5,367.7c0-72.2,0-144.4,0-216.6c14.9,0,29.7,0,46.7,0c-1.8,5.7-2.6,10.4-4.7,14.4
			c-5.2,9.7-3.8,20.4,4.1,27c7.8,6.5,18.9,6.3,26.5-0.5c7.8-7,8.8-17.1,3.3-27.1c-2.1-3.9-2.7-8.6-4.1-13.5c33.4,0,64.7,0,97.8,0
			c-2,5.5-3,10.2-5.2,14.3c-5.2,9.6-3.6,20.3,4.5,26.9c7.6,6.2,18.2,6.1,25.7-0.2c7.9-6.6,9.3-17.3,4.1-27c-2.1-4-2.9-8.7-4.7-14.4
			c16.4,0,30.7,0,44.9,0c0,72.2,0,144.4,0,216.6c-2.5,0.2-4.9,0.5-7.4,0.5c-74.7,0-149.5,0-224.2,0
			C135.4,368.2,133,367.9,130.5,367.7z M346.9,211.3c-65.1,0-129.3,0-193.8,0c0,45.2,0,89.8,0,134.9c64.8,0,129,0,193.8,0
			C346.9,301.1,346.9,256.5,346.9,211.3z"/>
		<path id="XMLID_549_" class="st0" d="M199.7,160.9c0,5.6,0.1,11.1,0,16.7c-0.1,6.5-3.2,10.7-10,10.9c-6.4,0.1-10-3.9-10.2-9.8
			c-0.4-12.4-0.4-24.8,0.1-37.1c0.2-5.9,4.1-9.7,10.4-9.4c6.3,0.2,9.5,4.1,9.6,10.2C199.8,148.5,199.7,154.7,199.7,160.9z"/>
		<path id="XMLID_548_" class="st0" d="M302.2,159.7c0-5.9-0.2-11.8,0-17.6c0.2-6.2,3.5-9.9,9.8-10c6.4-0.1,10.1,3.7,10.3,9.7
			c0.4,12.4,0.5,24.8,0,37.1c-0.2,5.9-4,9.8-10.4,9.6c-6.3-0.2-9.5-4-9.7-10.2C302,172.1,302.2,165.9,302.2,159.7z"/>
		<path id="XMLID_547_" class="st0" d="M193.3,303.5c0,7.8,0,15.2,0,23.3c-7.5,0-15.1,0-23.3,0c0-7.6,0-15.1,0-23.3
			C177.7,303.5,185.3,303.5,193.3,303.5z"/>
		<path id="XMLID_546_" class="st0" d="M262.6,303.4c0,8.1,0,15.5,0,23.5c-7.8,0-15.4,0-23.5,0c0-7.8,0-15.4,0-23.5
			C246.8,303.4,254.1,303.4,262.6,303.4z"/>
		<path id="XMLID_545_" class="st0" d="M204.4,303.4c8,0,15.3,0,23.2,0c0,8.1,0,15.6,0,23.7c-7.8,0-15.1,0-23.2,0
			C204.4,319.3,204.4,311.8,204.4,303.4z"/>
		<path id="XMLID_544_" class="st0" d="M273.3,326.9c0-8.3,0-15.6,0-23.5c7.8,0,15.1,0,23.2,0c0,7.7,0,15.2,0,23.5
			C289,326.9,281.5,326.9,273.3,326.9z"/>
		<path id="XMLID_543_" class="st0" d="M204,260.9c0-7.7,0-15,0-23c7.9,0,15.4,0,23.5,0c0,7.6,0,14.9,0,23
			C220.2,260.9,212.7,260.9,204,260.9z"/>
		<path id="XMLID_542_" class="st0" d="M262.7,238c0,7.9,0,15,0,22.9c-7.8,0-15.3,0-23.5,0c0-7.3,0-14.9,0-22.9
			C247,238,254.8,238,262.7,238z"/>
		<path id="XMLID_541_" class="st0" d="M296.9,237.9c0,8.2,0,15.5,0,23.3c-7.9,0-15.2,0-23.3,0c0-7.6,0-15.1,0-23.3
			C281.1,237.9,288.6,237.9,296.9,237.9z"/>
		<path id="XMLID_540_" class="st0" d="M331.6,237.8c0,7.7,0,15,0,23.1c-7.5,0-15,0-23.3,0c0-7.4,0-15,0-23.1
			C316,237.8,323.6,237.8,331.6,237.8z"/>
		<path id="XMLID_539_" class="st0" d="M193.4,271c0,8.1,0,15.4,0,23.3c-7.8,0-15.1,0-23.2,0c0-7.5,0-15,0-23.3
			C177.5,271,185,271,193.4,271z"/>
		<path id="XMLID_538_" class="st0" d="M204.2,270.9c7.7,0,15,0,23.1,0c0,7.5,0,15,0,23.2c-7.3,0-14.9,0-23.1,0
			C204.2,286.5,204.2,279,204.2,270.9z"/>
		<path id="XMLID_5_" class="st0" d="M239,270.8c7.9,0,15.3,0,23.3,0c0,7.7,0,15.3,0,23.4c-7.6,0-15.2,0-23.3,0
			C239,286.5,239,279.2,239,270.8z"/>
		<path id="XMLID_4_" class="st0" d="M296.7,294.3c-8.2,0-15.5,0-23.3,0c0-7.8,0-15.1,0-23.2c7.5,0,15,0,23.3,0
			C296.7,278.5,296.7,286.1,296.7,294.3z"/>
		<path id="XMLID_3_" class="st0" d="M308.2,294.2c0-7.7,0-15.1,0-23.2c7.5,0,15.1,0,23.3,0c0,7.4,0,15,0,23.2
			C323.8,294.2,316.2,294.2,308.2,294.2z"/>
	</g>
</g>
</svg>
